<?xml version="1.0" encoding="UTF-8"?>
<svg version="1.1" xmlns="http://www.w3.org/2000/svg" width="6338" height="2528">
<path d="M0 0 C2091.54 0 4183.08 0 6338 0 C6338 834.24 6338 1668.48 6338 2528 C4246.46 2528 2154.92 2528 0 2528 C0 1693.76 0 859.52 0 0 Z " fill="#F9FEFE" transform="translate(0,0)"/>
<path d="M0 0 C1852.95 0 3705.9 0 5615 0 C5615 437.91 5615 875.82 5615 1327 C3762.05 1327 1909.1 1327 0 1327 C0 889.09 0 451.18 0 0 Z " fill="#5F8D2E" transform="translate(238,1201)"/>
<path d="M0 0 C0 352.44 0 704.88 0 1068 C-160.05 1068 -320.1 1068 -485 1068 C-485 719.52 -485 371.04 -485 12 C-450.51236869 9.70082458 -450.51236869 9.70082458 -436.57691956 9.37985229 C-434.94029231 9.3373969 -433.30367901 9.29440116 -431.66707844 9.25092995 C-427.28053946 9.13593177 -422.89384782 9.02842307 -418.50708306 8.92243886 C-413.73134709 8.80566186 -408.95579927 8.68158227 -404.18022156 8.55853271 C-394.86146449 8.31957597 -385.5425536 8.087269 -376.22356582 7.857504 C-368.62315442 7.66999552 -361.02280762 7.48004202 -353.4224987 7.28842545 C-352.33229866 7.26094281 -351.24209863 7.23346018 -350.11886222 7.20514474 C-347.90242335 7.14926246 -345.68598459 7.09337551 -343.46954595 7.03748395 C-322.75643154 6.5154604 -302.04313137 6.00114094 -281.32975917 5.48946275 C-263.68623166 5.05342946 -246.04288738 4.61053393 -228.3996582 4.16259766 C-207.78921829 3.6393297 -187.17866906 3.1207189 -166.56793922 2.60898888 C-164.35292446 2.55398013 -162.13790987 2.49896487 -159.92289543 2.44394302 C-158.28931247 2.40336633 -158.28931247 2.40336633 -156.62272783 2.36196991 C-149.07394054 2.17415519 -141.52523751 1.98317304 -133.97656441 1.7908287 C-124.71426042 1.55489898 -115.45184296 1.3241335 -106.18926335 1.09927569 C-100.72790551 0.96655825 -95.2666763 0.83022889 -89.80560184 0.68629336 C-59.85065776 -0.07406888 -29.9865963 0 0 0 Z " fill="#FEFEFE" transform="translate(6338,1460)"/>
<path d="M0 0 C0.80836304 -0.00067474 1.61672607 -0.00134949 2.44958496 -0.00204468 C58.83412417 0.07210538 111.69267828 17.04718745 159.13696289 47.22265625 C176.80718541 58.31089997 195.89155241 67.81700843 215.375 75.25 C216.73262451 75.77835449 216.73262451 75.77835449 218.11767578 76.31738281 C278.19892656 99.54544797 342.01139579 104.28076979 405.76953125 100.08203125 C407.24344991 99.9871577 407.24344991 99.9871577 408.7471447 99.89036751 C433.99330382 98.24606872 459.1461291 95.65600737 484.30895996 93.06140137 C563.80345721 84.86992466 563.80345721 84.86992466 603.10498047 84.93432617 C606.11131782 84.93895193 609.11724987 84.9320254 612.12353516 84.91381836 C639.70846795 84.74874603 667.2755969 85.96864062 694.5 90.75 C695.20903473 90.87182648 695.91806946 90.99365295 696.64859009 91.11917114 C754.47202102 101.11531979 811.18388793 118.00008573 867.48046875 134.25927734 C948.40855068 157.93666427 948.40855068 157.93666427 1031.375 172.25 C1032.30723389 172.3545752 1033.23946777 172.45915039 1034.19995117 172.56689453 C1075.37163516 176.59718459 1118.1869102 172.4675346 1157.375 159.25 C1163.01691443 157.50064017 1168.69358504 155.8657347 1174.375 154.25 C1175.89480469 153.816875 1175.89480469 153.816875 1177.4453125 153.375 C1243.22553943 135.78474433 1315.9594285 156.16679965 1376.375 183.25 C1377.39013672 183.70262207 1378.40527344 184.15524414 1379.45117188 184.62158203 C1391.10477245 189.83759528 1402.67694022 195.20819066 1414.03125 201.04931641 C1416.81670618 202.47628239 1419.61198537 203.88333124 1422.40625 205.29296875 C1438.81245723 213.62486651 1454.67363005 222.65041748 1470.375 232.25 C1471.43412598 232.89646484 1472.49325195 233.54292969 1473.58447266 234.20898438 C1486.44435404 242.08538796 1499.06175941 250.25080548 1511.42333984 258.88867188 C1513.19940985 260.12752181 1514.98234194 261.35539639 1516.76953125 262.578125 C1521.85178695 266.07528557 1521.85178695 266.07528557 1523.375 267.25 C1523.375 267.58 1523.375 267.91 1523.375 268.25 C945.545 268.25 367.715 268.25 -227.625 268.25 C-235.215 213.8 -242.805 159.35 -250.625 103.25 C-250.955 100.94 -251.285 98.63 -251.625 96.25 C-250.01953125 94.08984375 -250.01953125 94.08984375 -247.4375 92.1875 C-246.42042969 91.42824219 -245.40335938 90.66898438 -244.35546875 89.88671875 C-243.11273348 89.00674626 -241.86917781 88.12793173 -240.625 87.25 C-239.14162114 86.17359858 -237.65856811 85.09674804 -236.17578125 84.01953125 C-209.67680718 64.96869999 -181.27505602 48.84338495 -151.625 35.25 C-150.19933716 34.59185303 -150.19933716 34.59185303 -148.74487305 33.92041016 C-143.93983352 31.71472481 -139.14575629 29.59370752 -134.1875 27.75 C-130.13358808 26.22504715 -126.15185475 24.61794907 -122.1875 22.875 C-84.18195592 7.11301079 -40.94088499 0.03103335 0 0 Z " fill="#22492C" transform="translate(487.625,930.75)"/>
<path d="M0 0 C79.06440092 4.2737514 158.01345708 10.470942 237 16 C237 402.43 237 788.86 237 1187 C158.79 1187 80.58 1187 0 1187 C0 795.29 0 403.58 0 0 Z " fill="#FEFEFE" transform="translate(0,1341)"/>
<path d="M0 0 C0.80200836 -0.00979385 1.60401672 -0.01958771 2.43032837 -0.02967834 C21.42514665 -0.21359072 39.65578528 0.31033285 58.3203125 4.23828125 C59.32336426 4.44727051 60.32641602 4.65625977 61.35986328 4.87158203 C103.26667923 13.89652142 142.60733165 32.64385432 177.51318359 57.31835938 C180.3358549 59.30085944 180.3358549 59.30085944 183.50634766 61.08007812 C184.52390137 61.70462891 185.54145508 62.32917969 186.58984375 62.97265625 C187.98553589 63.77268066 187.98553589 63.77268066 189.40942383 64.58886719 C191.75095788 67.83536362 191.4344696 68.81858456 191.03190613 72.70979309 C190.92263133 73.78699301 190.81335653 74.86419292 190.70077038 75.97403526 C190.14138156 80.77346984 189.52631138 85.55976518 188.84570312 90.34350586 C188.62843819 91.89953522 188.62843819 91.89953522 188.40678406 93.48699951 C187.93328903 96.87200558 187.45503063 100.2563186 186.9765625 103.640625 C186.64383305 106.01042727 186.31135837 108.38026532 185.97912598 110.75013733 C185.28518285 115.69512686 184.58902677 120.63979781 183.89111328 125.58422852 C182.99671681 131.92107706 182.10657147 138.25851345 181.21790314 144.59616756 C180.53282085 149.48017843 179.84617356 154.36396817 179.15898132 159.24768257 C178.83012611 161.58522494 178.50160215 163.92281394 178.17341614 166.26045036 C177.71540941 169.52011869 177.25545801 172.77950656 176.79492188 176.03881836 C176.65982712 177.00251846 176.52473236 177.96621857 176.38554382 178.9591217 C176.1963311 180.29389053 176.1963311 180.29389053 176.0032959 181.65562439 C175.89490135 182.4244844 175.78650681 183.1933444 175.67482758 183.9855032 C175.29250313 186.41499681 174.80263904 188.82664855 174.3203125 191.23828125 C-238.5096875 191.23828125 -651.3396875 191.23828125 -1076.6796875 191.23828125 C-1073.0755567 187.63415045 -1070.40111671 185.183473 -1066.27734375 182.48828125 C-1065.23352539 181.80403076 -1064.18970703 181.11978027 -1063.11425781 180.41479492 C-1061.99062861 179.68867994 -1060.86659514 178.96319021 -1059.7421875 178.23828125 C-1059.16722534 177.86522858 -1058.59226318 177.4921759 -1057.99987793 177.1078186 C-1032.21896747 160.38746134 -1005.33117816 144.85559126 -977.21875 132.375 C-975.55669023 131.63090863 -973.90486674 130.86340842 -972.265625 130.0703125 C-963.84640358 126.0431617 -955.05295963 123.13090865 -946.23071289 120.13012695 C-943.61035783 119.2140434 -941.02119268 118.2303801 -938.42578125 117.24609375 C-927.19574237 113.14891351 -915.33584321 110.81573675 -903.6796875 108.23828125 C-902.33922363 107.93712402 -902.33922363 107.93712402 -900.97167969 107.62988281 C-877.90275993 102.66133912 -850.35742519 102.64228878 -827.6796875 109.23828125 C-826.76960938 109.50092773 -825.85953125 109.76357422 -824.921875 110.03417969 C-820.90455312 111.20322036 -816.89198182 112.38726267 -812.88427734 113.58886719 C-760.72867063 129.07139112 -710.61858504 122.66564616 -658.6796875 109.23828125 C-657.54869629 108.94663086 -656.41770508 108.65498047 -655.25244141 108.35449219 C-642.86898736 105.13871056 -630.59214787 101.65772403 -618.37280273 97.86767578 C-609.08458194 95.00692621 -599.71084389 92.49705187 -590.31640625 90.01171875 C-586.15899997 88.91153676 -582.01507175 87.77212177 -577.87680054 86.6020813 C-565.36826208 83.07688156 -552.77391914 79.89195501 -540.17016602 76.72705078 C-537.56634932 76.07280314 -534.96389183 75.41352558 -532.36254883 74.74951172 C-460.78487646 56.50768413 -392.80463326 59.35236948 -319.99633789 67.08056641 C-296.06258427 69.61030821 -272.26136176 71.64267682 -248.1796875 71.55078125 C-246.66444489 71.54804703 -246.66444489 71.54804703 -245.11859131 71.54525757 C-229.1348785 71.49700497 -213.47314196 70.90621654 -197.6796875 68.23828125 C-196.62249512 68.06135742 -195.56530273 67.88443359 -194.47607422 67.70214844 C-176.64012177 64.61715472 -159.42402527 60.13358105 -142.6796875 53.23828125 C-141.87571533 52.9131958 -141.07174316 52.58811035 -140.2434082 52.25317383 C-124.86610745 46.00619366 -110.32253688 38.64185557 -96.22583008 29.87451172 C-67.24524813 11.92540604 -34.31445214 0.3500905 0 0 Z " fill="#22492C" transform="translate(5668.6796875,1005.76171875)"/>
<path d="M0 0 C8.49982437 2.26156041 12.65845503 9.24027402 17.0703125 16.32421875 C19.08595189 19.91674844 20.15442312 23.48719476 21.125 27.5 C21.29547852 28.1914209 21.46595703 28.8828418 21.64160156 29.59521484 C22.7439624 34.26484934 23.32042331 38.83971545 23.75 43.625 C24.59180273 50.88746173 27.26456591 55.74386688 31.0390625 61.81640625 C35.91009475 69.72455622 37.83807956 78.01820087 39.69433594 87.02050781 C40.18024663 90.8226512 40.18024663 90.8226512 42 94 C42.43699219 93.11248047 42.43699219 93.11248047 42.8828125 92.20703125 C45.62402868 86.92286295 47.94706779 83.23387662 53 80 C57.18646231 78.78212005 59.43620568 78.83474994 63.625 80.0625 C69.69415289 83.54664333 73.88904248 89.33478971 75.9140625 96.015625 C76.14867188 97.08296875 76.38328125 98.1503125 76.625 99.25 C76.87894531 100.39597656 77.13289063 101.54195312 77.39453125 102.72265625 C77.89372555 105.42474669 78.17114199 107.95295374 78.3125 110.6875 C78.71980146 115.36298139 80.93930695 118.39728367 83.44140625 122.2734375 C91.14613176 135.75187962 91.28738543 152.39381326 91.56640625 167.4609375 C91.59605469 168.605625 91.62570313 169.7503125 91.65625 170.9296875 C91.67494141 171.95304199 91.69363281 172.97639648 91.71289062 174.03076172 C92.02601249 177.26901688 92.90173978 179.94687353 94 183 C96.59562012 197.04984051 96.86456743 213.85461196 89.5390625 226.52734375 C86.11389891 231.3347434 83.0118456 234.54571228 77.125 235.875 C72.91493539 236.22583872 70.50158032 235.51200327 67 233 C65.37696683 230.97526612 63.90385649 228.91950748 62.4921875 226.7421875 C60.92387602 224.57080984 60.92387602 224.57080984 57 224 C57 237.53 57 251.06 57 265 C56.34 265 55.68 265 55 265 C55 251.14 55 237.28 55 223 C53.35 223 51.7 223 50 223 C49.33742188 222.4946875 48.67484375 221.989375 47.9921875 221.46875 C46.09489321 219.76041384 46.09489321 219.76041384 43.6328125 220.03125 C42.39144531 220.26328125 42.39144531 220.26328125 41.125 220.5 C36.41961377 221.10024722 33.93276104 220.94957078 30 218 C25.81475745 213.34190553 22 208.47147631 22 202 C14.95007271 200.52178944 11.38262711 201.2485331 5.1640625 204.87109375 C3 206 3 206 0 206 C0 225.47 0 244.94 0 265 C-0.33 265 -0.66 265 -1 265 C-1.495 236.29 -1.495 236.29 -2 207 C-3.98 206.67 -5.96 206.34 -8 206 C-8.20625 206.66 -8.4125 207.32 -8.625 208 C-11.30461539 213.84643359 -15.04777568 219.45761388 -20.953125 222.37109375 C-26.07881969 223.94597323 -31.43627413 224.14083696 -36.37890625 221.94140625 C-38.34880647 220.71883466 -40.1716071 219.42304164 -42 218 C-43.485 217.01 -43.485 217.01 -45 216 C-45.226875 216.86625 -45.45375 217.7325 -45.6875 218.625 C-47.63232864 223.62598794 -50.32043466 226.85484181 -54.75 229.875 C-58.97204722 231.33647788 -62.58060172 231.7140859 -67 231 C-73.14672103 227.86865155 -76.77493024 223.48978681 -79 217 C-80.65 217 -82.3 217 -84 217 C-84 232.84 -84 248.68 -84 265 C-84.66 265 -85.32 265 -86 265 C-86 249.16 -86 233.32 -86 217 C-92.45135388 214.83294642 -92.45135388 214.83294642 -99 213 C-99.66 213.33 -100.32 213.66 -101 214 C-107.18051593 214.4754243 -110.99754282 213.54774206 -115.75390625 209.51171875 C-126.44266627 198.73061523 -127.23927128 183.5101401 -127.25317383 169.24291992 C-127.0881954 151.77500363 -127.0881954 151.77500363 -122.50488281 144.68823242 C-120.90193529 141.82482308 -120.40834832 139.73450683 -119.97265625 136.5 C-119.82272217 135.45416748 -119.67278809 134.40833496 -119.51831055 133.33081055 C-119.36789307 132.23164307 -119.21747559 131.13247559 -119.0625 130 C-115.78380756 108.15194323 -115.78380756 108.15194323 -109.4375 98.3125 C-106.27850181 93.24200609 -105.17833248 88.87484677 -104.375 83.0625 C-102.71213211 71.05122651 -99.73318935 60.05568891 -90 52 C-85.10033877 49.54244121 -81.22867907 49.65008286 -76 51 C-69.38799287 53.87012074 -65.96967915 59.6894318 -63 66 C-60.68942744 72.12115393 -59.83225929 78.20643302 -59.125 84.6875 C-58.47275007 90.13212869 -57.57303922 93.93257712 -54.21875 98.2890625 C-52.71711072 100.39713303 -51.89199045 102.58006293 -51 105 C-50.82984375 103.80246094 -50.6596875 102.60492187 -50.484375 101.37109375 C-47.93203007 83.95435242 -44.44656248 67.32688584 -34.31640625 52.54296875 C-32.53723739 49.10605798 -32.31011777 45.72956763 -32 41.9375 C-30.55070295 27.88757887 -27.80846432 14.71153456 -16.75 4.875 C-11.01280927 0.26229865 -7.3237627 -0.83918114 0 0 Z " fill="#22492C" transform="translate(2185,932)"/>
<path d="M0 0 C5.20757055 2.31891817 8.54320115 5.72558034 11.78515625 10.34375 C12.22730469 10.96765625 12.66945312 11.5915625 13.125 12.234375 C18.83537376 21.3293168 20.58150501 32.4457018 21.53515625 42.96875 C22.36096957 50.05140119 25.08651729 55.03856437 28.75390625 60.94921875 C34.08467963 69.85776119 36.43377423 79.31843382 38.20703125 89.421875 C38.47988364 92.22394774 38.47988364 92.22394774 39.78515625 93.34375 C40.22214844 92.45623047 40.22214844 92.45623047 40.66796875 91.55078125 C43.40918493 86.26661295 45.73222404 82.57762662 50.78515625 79.34375 C54.97161856 78.12587005 57.22136193 78.17849994 61.41015625 79.40625 C68.61248375 83.54091949 72.53086628 90.55034752 74.78515625 98.34375 C75.02975195 100.81960199 75.23520939 103.29950389 75.41015625 105.78125 C75.99906167 111.9125039 77.50793981 116.38614928 80.66015625 121.65625 C88.73716743 135.49424439 89.26706023 150.5620448 89.37084961 166.29760742 C89.45673459 173.08931375 90.29626507 178.96078806 92.10180664 185.5012207 C93.16345281 189.91735018 93.27695596 194.19420479 93.22265625 198.71875 C93.21129639 200.07166138 93.21129639 200.07166138 93.19970703 201.4519043 C92.93041052 212.48028451 90.91416425 223.27570956 82.78515625 231.34375 C79.08025654 234.49068289 75.63363936 235.46590171 70.78515625 235.34375 C65.435961 233.73899143 63.19821821 230.59101506 60.27734375 226.0859375 C58.70903227 223.91455984 58.70903227 223.91455984 54.78515625 223.34375 C54.78515625 236.87375 54.78515625 250.40375 54.78515625 264.34375 C54.12515625 264.34375 53.46515625 264.34375 52.78515625 264.34375 C52.78515625 250.48375 52.78515625 236.62375 52.78515625 222.34375 C51.13515625 222.34375 49.48515625 222.34375 47.78515625 222.34375 C47.12257812 221.8384375 46.46 221.333125 45.77734375 220.8125 C43.88004946 219.10416384 43.88004946 219.10416384 41.41796875 219.375 C40.17660156 219.60703125 40.17660156 219.60703125 38.91015625 219.84375 C34.20477002 220.44399722 31.71791729 220.29332078 27.78515625 217.34375 C23.5999137 212.68565553 19.78515625 207.81522631 19.78515625 201.34375 C12.73522896 199.86553944 9.16778336 200.5922831 2.94921875 204.21484375 C0.78515625 205.34375 0.78515625 205.34375 -2.21484375 205.34375 C-2.21484375 224.81375 -2.21484375 244.28375 -2.21484375 264.34375 C-2.54484375 264.34375 -2.87484375 264.34375 -3.21484375 264.34375 C-3.70984375 235.63375 -3.70984375 235.63375 -4.21484375 206.34375 C-6.19484375 206.01375 -8.17484375 205.68375 -10.21484375 205.34375 C-10.42109375 206.00375 -10.62734375 206.66375 -10.83984375 207.34375 C-13.49234088 213.13101647 -17.23912191 218.84317709 -23.109375 221.70703125 C-29.01287052 223.49231839 -34.69137291 223.66964146 -40.2109375 220.76953125 C-42.65526656 219.06023447 -44.96239453 217.29720153 -47.21484375 215.34375 C-47.44171875 216.21 -47.66859375 217.07625 -47.90234375 217.96875 C-49.84717239 222.96973794 -52.53527841 226.19859181 -56.96484375 229.21875 C-62.47711555 231.12684409 -67.07496552 231.35075152 -72.40234375 228.84375 C-75.90113971 225.73370914 -78.77238998 222.34521682 -81.21484375 218.34375 C-81.21484375 217.68375 -81.21484375 217.02375 -81.21484375 216.34375 C-82.86484375 216.34375 -84.51484375 216.34375 -86.21484375 216.34375 C-86.21484375 232.18375 -86.21484375 248.02375 -86.21484375 264.34375 C-86.87484375 264.34375 -87.53484375 264.34375 -88.21484375 264.34375 C-88.21484375 248.50375 -88.21484375 232.66375 -88.21484375 216.34375 C-94.66619763 214.17669642 -94.66619763 214.17669642 -101.21484375 212.34375 C-101.87484375 212.67375 -102.53484375 213.00375 -103.21484375 213.34375 C-108.47791183 213.74860139 -111.7889955 213.2629265 -116.21484375 210.34375 C-125.43839222 201.64923299 -129.02149377 190.07735787 -129.50390625 177.65625 C-130.00293992 154.14089943 -130.00293992 154.14089943 -124.6953125 144.6171875 C-122.81452622 140.45861521 -122.37403044 136.59344636 -121.83984375 132.09375 C-119.95083925 118.27499469 -117.2833409 106.04980588 -109.71484375 94.19140625 C-107.57149419 90.12239107 -107.17179956 86.23691993 -106.65625 81.7109375 C-105.17820372 70.43592961 -101.6235001 60.38272005 -93.40234375 52.34375 C-89.28329205 49.75924697 -86.05772217 48.95730639 -81.21484375 49.34375 C-76.07169595 50.60845848 -72.9926149 53.18889304 -69.96484375 57.46875 C-69.01065015 59.07200212 -68.09296463 60.69760101 -67.21484375 62.34375 C-66.83457031 63.05015625 -66.45429688 63.7565625 -66.0625 64.484375 C-63.11603065 70.84430129 -62.25973042 77.48124292 -61.5168457 84.39208984 C-60.85228227 89.66614359 -59.41729533 93.18150176 -56.40600586 97.56005859 C-54.97348232 99.70517377 -54.05161718 101.90950001 -53.21484375 104.34375 C-53.0446875 103.14621094 -52.87453125 101.94867187 -52.69921875 100.71484375 C-47.4483894 64.88413158 -47.4483894 64.88413158 -36.53125 52.421875 C-34.45686633 49.14718031 -34.49950966 45.55579558 -34.21484375 41.78125 C-32.88631404 27.84836411 -29.77720266 13.41427642 -18.85546875 3.6796875 C-18.3140625 3.23882813 -17.77265625 2.79796875 -17.21484375 2.34375 C-16.07015625 1.3846875 -16.07015625 1.3846875 -14.90234375 0.40625 C-10.02677251 -1.52130142 -5.01985917 -1.48736568 0 0 Z " fill="#22492C" transform="translate(4312.21484375,932.65625)"/>
<path d="M0 0 C8.49982437 2.26156041 12.65845503 9.24027402 17.0703125 16.32421875 C19.08595189 19.91674844 20.15442312 23.48719476 21.125 27.5 C21.29547852 28.1914209 21.46595703 28.8828418 21.64160156 29.59521484 C22.7439624 34.26484934 23.32042331 38.83971545 23.75 43.625 C24.57581332 50.70765119 27.30136104 55.69481437 30.96875 61.60546875 C36.29952338 70.51401119 38.64861798 79.97468382 40.421875 90.078125 C40.69472739 92.88019774 40.69472739 92.88019774 42 94 C42.29132813 93.40832031 42.58265625 92.81664062 42.8828125 92.20703125 C45.62402868 86.92286295 47.94706779 83.23387662 53 80 C57.18646231 78.78212005 59.43620568 78.83474994 63.625 80.0625 C69.69415289 83.54664333 73.88904248 89.33478971 75.9140625 96.015625 C76.14867188 97.08296875 76.38328125 98.1503125 76.625 99.25 C77.00978516 100.97863281 77.00978516 100.97863281 77.40234375 102.7421875 C77.88393242 105.36731788 78.11191292 107.72441321 78.1875 110.375 C78.55735892 114.8133071 80.6207573 118.10333515 82.8125 121.875 C90.78032479 135.98542881 91.48050042 151.00550019 91.58569336 166.95385742 C91.67157834 173.74556375 92.51110882 179.61703806 94.31665039 186.1574707 C95.37829656 190.57360018 95.49179971 194.85045479 95.4375 199.375 C95.42614014 200.72791138 95.42614014 200.72791138 95.41455078 202.1081543 C95.14525427 213.13653451 93.129008 223.93195956 85 232 C81.29510029 235.14693289 77.84848311 236.12215171 73 236 C67.65080475 234.39524143 65.41306196 231.24726506 62.4921875 226.7421875 C60.92387602 224.57080984 60.92387602 224.57080984 57 224 C57 237.53 57 251.06 57 265 C56.34 265 55.68 265 55 265 C55 251.14 55 237.28 55 223 C53.35 223 51.7 223 50 223 C49.33742187 222.4946875 48.67484375 221.989375 47.9921875 221.46875 C46.09489321 219.76041384 46.09489321 219.76041384 43.6328125 220.03125 C42.39144531 220.26328125 42.39144531 220.26328125 41.125 220.5 C36.41961377 221.10024722 33.93276104 220.94957078 30 218 C25.81475745 213.34190553 22 208.47147631 22 202 C14.95007271 200.52178944 11.38262711 201.2485331 5.1640625 204.87109375 C3 206 3 206 0 206 C0 225.47 0 244.94 0 265 C-0.33 265 -0.66 265 -1 265 C-1.495 236.29 -1.495 236.29 -2 207 C-3.98 206.67 -5.96 206.34 -8 206 C-8.20625 206.66 -8.4125 207.32 -8.625 208 C-11.27995416 213.79262727 -15.02495967 219.48179833 -20.88671875 222.3671875 C-26.2873858 223.98439279 -32.0735446 224.26978404 -37.3046875 222 C-48.58571726 214.27446989 -53.09114281 201.20625918 -55.75 188.3828125 C-57.5618358 177.08400313 -57.38299073 166.40115237 -55.6875 155.125 C-55.56995361 154.32811768 -55.45240723 153.53123535 -55.33129883 152.71020508 C-55.2052124 151.94216553 -55.07912598 151.17412598 -54.94921875 150.3828125 C-54.83924561 149.70621582 -54.72927246 149.02961914 -54.6159668 148.33251953 C-54 146 -54 146 -52.45239258 142.67602539 C-50.88203826 138.70143722 -50.69121727 136.04708046 -50.8125 131.80078125 C-50.83853225 130.42236921 -50.86423603 129.04395095 -50.88964844 127.66552734 C-50.90829956 126.95434753 -50.92695068 126.24316772 -50.94616699 125.51043701 C-51.27552736 112.06304913 -50.85869255 99.1954013 -48 86 C-47.79914795 85.00178223 -47.79914795 85.00178223 -47.59423828 83.98339844 C-45.47026264 73.64929148 -41.42235068 61.20236401 -34.31640625 53.07421875 C-32.24928268 49.817119 -32.28504808 46.25579034 -32 42.5 C-30.62275595 28.23660415 -27.9879914 14.87122439 -16.75 4.875 C-11.01280927 0.26229865 -7.3237627 -0.83918114 0 0 Z " fill="#22492C" transform="translate(4521,932)"/>
<path d="M0 0 C8.49982437 2.26156041 12.65845503 9.24027402 17.0703125 16.32421875 C19.08595189 19.91674844 20.15442312 23.48719476 21.125 27.5 C21.29547852 28.1914209 21.46595703 28.8828418 21.64160156 29.59521484 C22.7439624 34.26484934 23.32042331 38.83971545 23.75 43.625 C24.59180273 50.88746173 27.26456591 55.74386688 31.0390625 61.81640625 C35.91009475 69.72455622 37.83807956 78.01820087 39.69433594 87.02050781 C40.18024663 90.8226512 40.18024663 90.8226512 42 94 C42.29132812 93.40832031 42.58265625 92.81664062 42.8828125 92.20703125 C45.62402868 86.92286295 47.94706779 83.23387662 53 80 C57.18646231 78.78212005 59.43620568 78.83474994 63.625 80.0625 C69.97621551 83.70856816 73.34775236 89.32774719 76 96 C76.69220957 99.1040803 77.03382006 102.21558463 77.375 105.375 C78.26872559 112.20871501 79.58824561 117.09671962 83.58203125 122.8359375 C86.05226695 126.60593909 86.97462174 130.65288738 88 135 C88.26683594 135.99515625 88.53367187 136.9903125 88.80859375 138.015625 C91.10987283 147.66117749 91.43547433 157.12801323 91.53369141 167.01733398 C91.65934025 173.9928878 92.61867772 180.1951454 94.31884766 186.95507812 C95.29343374 191.31172246 95.49469924 195.48685399 95.4375 199.9375 C95.42614014 201.21318848 95.42614014 201.21318848 95.41455078 202.51464844 C95.13398639 213.380887 92.98976963 224.07015364 85 232 C81.29510029 235.14693289 77.84848311 236.12215171 73 236 C67.65080475 234.39524143 65.41306196 231.24726506 62.4921875 226.7421875 C60.92387602 224.57080984 60.92387602 224.57080984 57 224 C57 237.53 57 251.06 57 265 C56.34 265 55.68 265 55 265 C55 251.14 55 237.28 55 223 C53.35 223 51.7 223 50 223 C49.33742188 222.4946875 48.67484375 221.989375 47.9921875 221.46875 C46.09489321 219.76041384 46.09489321 219.76041384 43.6328125 220.03125 C42.39144531 220.26328125 42.39144531 220.26328125 41.125 220.5 C36.41961377 221.10024722 33.93276104 220.94957078 30 218 C25.81475745 213.34190553 22 208.47147631 22 202 C14.95007271 200.52178944 11.38262711 201.2485331 5.1640625 204.87109375 C3 206 3 206 0 206 C0 225.47 0 244.94 0 265 C-0.33 265 -0.66 265 -1 265 C-1.495 236.29 -1.495 236.29 -2 207 C-3.98 206.67 -5.96 206.34 -8 206 C-8.20625 206.66 -8.4125 207.32 -8.625 208 C-11.30461539 213.84643359 -15.04777568 219.45761388 -20.953125 222.37109375 C-26.02205401 223.92853186 -31.23628293 224.00323412 -36.23828125 222.1875 C-46.16435735 216.63660696 -50.93267723 206.50529959 -54 196 C-57.41151495 182.23744945 -57.78431529 169.08174768 -55.6875 155.0625 C-55.57003418 154.26924316 -55.45256836 153.47598633 -55.33154297 152.65869141 C-55.20537598 151.8960498 -55.07920898 151.1334082 -54.94921875 150.34765625 C-54.78425903 149.34230835 -54.78425903 149.34230835 -54.6159668 148.31665039 C-54 146 -54 146 -52.45239258 142.6940918 C-50.85868689 138.64057678 -50.69347866 135.87903127 -50.8125 131.546875 C-50.83852096 130.11759992 -50.86422543 128.68831905 -50.88964844 127.2590332 C-50.90829956 126.52206207 -50.92695068 125.78509094 -50.94616699 125.02578735 C-51.26082584 111.72360224 -50.98634117 99.02421698 -48 86 C-47.73316406 84.7109375 -47.46632813 83.421875 -47.19140625 82.09375 C-44.75882169 71.62823065 -40.41087701 61.43721957 -34.31640625 52.54296875 C-32.53723739 49.10605798 -32.31011777 45.72956763 -32 41.9375 C-30.55070295 27.88757887 -27.80846432 14.71153456 -16.75 4.875 C-11.01280927 0.26229865 -7.3237627 -0.83918114 0 0 Z " fill="#22492C" transform="translate(2396,932)"/>
<path d="M0 0 C7.22710321 2.12113574 11.50422271 6.93253788 15.33984375 13.18359375 C20.43128595 22.60817825 22.88006913 32.66153873 23.875 43.25 C24.46132702 49.25038932 25.84265095 53.64832699 29.3671875 58.59375 C33.82294034 65.16012261 36.11846654 72.04070839 38.0625 79.6875 C38.32216553 80.68628174 38.58183105 81.68506348 38.84936523 82.71411133 C40.76831352 90.37963626 41.92974245 98.0087913 42.88696289 105.84301758 C43.67048947 111.79838945 45.24627509 116.68574113 47.79296875 122.1484375 C55.67480686 140.76896119 53.54303449 165.01638352 46.3125 183.4375 C43.02489182 190.56607615 38.75384765 197.46036153 31.5 201.0625 C26.2481734 202.46923927 21.9051364 202.45864395 16.625 201.1875 C11.90847092 200.9435416 9.26774329 202.57257486 5.234375 204.87109375 C3 206 3 206 0 206 C0 225.47 0 244.94 0 265 C-0.33 265 -0.66 265 -1 265 C-1.495 236.29 -1.495 236.29 -2 207 C-3.65 207 -5.3 207 -7 207 C-9.07790478 209.24890278 -9.07790478 209.24890278 -10.8125 212.1875 C-14.26072233 217.17040601 -17.11290321 221.05116796 -23 223 C-28.17908355 223.89584148 -32.81515392 224.16279385 -37.546875 221.64453125 C-39.49379461 220.19124551 -41.27317806 218.70650639 -43 217 C-43.09796875 217.9178125 -43.1959375 218.835625 -43.296875 219.78125 C-44.33720105 228.31909826 -45.56455201 234.53391761 -50.875 241.4375 C-53.68635113 243.50466995 -55.51170426 243.93023409 -59 244 C-63.13691841 242.4587951 -65.76423444 240.85048512 -68 237 C-68 236.34 -68 235.68 -68 235 C-68.99 235 -69.98 235 -71 235 C-71 244.9 -71 254.8 -71 265 C-71.66 265 -72.32 265 -73 265 C-73.33 255.1 -73.66 245.2 -74 235 C-78.81939797 233.02256337 -78.81939797 233.02256337 -83.4375 233.1875 C-87.07231806 233.24787904 -87.99715009 233.00166693 -91.3125 231.0625 C-96.76828713 225.74310755 -98.76007421 217.99568723 -99.203125 210.6171875 C-99.30302489 202.64184654 -98.86299717 195.50609621 -96 188 C-95.67 187.67 -95.34 187.34 -95 187 C-94.70580853 184.92372784 -94.41600991 182.84672201 -94.15039062 180.76660156 C-93.07818478 172.58251013 -91.54818788 166.20776357 -87.41015625 158.96875 C-85.74994926 155.47357739 -85.06256499 152.03387559 -84.4375 148.25 C-83.13018061 140.70003714 -80.77285573 135.13472515 -75 130 C-71.45871741 128.89826764 -69.49568378 128.84826007 -65.9375 129.9375 C-58.35711471 135.25989818 -56.8407905 143.35459214 -55 152 C-51.33765646 142.33218966 -50.62226032 134.07620873 -51 123.8125 C-51.52472005 98.1787459 -47.73827627 74.08266555 -34 52 C-33.67 51.67 -33.34 51.34 -33 51 C-32.80458075 49.09253815 -32.6150115 47.18428342 -32.45605469 45.2734375 C-31.20058372 30.65999341 -27.83584231 14.61628156 -16.3125 4.5 C-10.75147903 0.10231905 -7.04452918 -0.82692096 0 0 Z " fill="#22492C" transform="translate(3309,932)"/>
<path d="M0 0 C47.01327189 1.62978569 94.01348213 3.56414919 141.01506552 5.4973124 C152.44988148 5.96757132 163.88475863 6.43633495 175.31963844 6.9050384 C195.69856606 7.74038655 216.07744756 8.57685389 236.45629883 9.4140625 C256.2088782 10.22553998 275.96148004 11.03646707 295.71411133 11.84667969 C296.9392647 11.89693317 298.16441807 11.94718664 299.42669731 11.99896295 C305.57520162 12.25115967 311.72370637 12.50334585 317.87221134 12.75552678 C368.58154135 14.83538356 419.29079604 16.91707236 470 19 C470 19.66 470 20.32 470 21 C469.08036496 21.02289595 468.16072992 21.04579189 467.21322715 21.06938165 C412.59936879 22.42911292 357.98554395 23.79018426 303.37176096 25.15293964 C296.80106353 25.31689444 290.23036583 25.48083829 283.65966797 25.64477539 C281.69766619 25.69372707 281.69766619 25.69372707 279.69602801 25.74366767 C258.57077087 26.27071393 237.4454918 26.79687624 216.32020436 27.32270669 C194.61249796 27.86305404 172.90481569 28.40436335 151.19715512 28.946549 C137.82329013 29.28055413 124.44940731 29.61382617 111.07550003 29.94613338 C101.88042274 30.17467964 92.68536925 30.40416781 83.49033318 30.63436633 C78.20068614 30.76676621 72.91103028 30.89878001 67.62134552 31.02966499 C45.07654604 31.58777514 22.53802624 32.21006833 0 33 C0 22.11 0 11.22 0 0 Z " fill="#F2F7E8" transform="translate(5853,1439)"/>
<path d="M0 0 C0.33 0 0.66 0 1 0 C1 437.58 1 875.16 1 1326 C0.67 1326 0.34 1326 0 1326 C0 939.57 0 553.14 0 155 C-4.62 155 -9.24 155 -14 155 C-17.27996965 154.84829223 -20.53587367 154.6716953 -23.80783081 154.43054199 C-25.13659404 154.33866206 -25.13659404 154.33866206 -26.49220097 154.24492598 C-29.40644072 154.04224967 -32.32014006 153.8326831 -35.23388672 153.62304688 C-37.34426987 153.47484552 -39.45468339 153.32707619 -41.56512451 153.17970276 C-47.25451141 152.78119382 -52.94345788 152.37669359 -58.63234091 151.97106361 C-64.59246555 151.54713532 -70.55298217 151.12879152 -76.51345825 150.70983887 C-87.78263222 149.91690174 -99.0514481 149.11898972 -110.32014191 148.31926107 C-123.15670861 147.40850758 -135.99366762 146.50334444 -148.83066154 145.59863567 C-175.2208802 143.73861549 -201.61060194 141.87162418 -228 140 C-228 139.67 -228 139.34 -228 139 C-152.76 139 -77.52 139 0 139 C0 93.13 0 47.26 0 0 Z " fill="#D7E3C6" transform="translate(237,1202)"/>
<path d="M0 0 C3.6875 0.375 3.6875 0.375 6 2.5625 C8.37314806 6.51774677 9.64651899 10.0694552 10.5625 14.5625 C11.24118407 17.87512461 12.2204993 20.58776523 13.6875 23.625 C16.93679255 31.24694646 16.90470635 39.86772875 17.45385742 48.03833008 C17.70309351 50.5309514 18.17878977 52.92357147 18.6875 55.375 C19.3641179 63.23417714 18.50902746 70.38594394 13.875 76.9375 C10.83501824 78.9352023 9.26562574 79.01906263 5.6875 78.375 C3.7075 76.725 1.7275 75.075 -0.3125 73.375 C-0.3125 79.975 -0.3125 86.575 -0.3125 93.375 C-0.9725 93.375 -1.6325 93.375 -2.3125 93.375 C-2.3125 86.445 -2.3125 79.515 -2.3125 72.375 C-5.2825 72.045 -8.2525 71.715 -11.3125 71.375 C-15.96308297 69.04970851 -16.67938568 67.85863482 -18.55078125 63.2578125 C-21.22015872 53.15524544 -19.144522 43.16731489 -16.3125 33.375 C-15.98909095 31.77299703 -15.67569603 30.16892113 -15.375 28.5625 C-14.61312092 24.98999138 -13.2135531 22.36195894 -11.25 19.2578125 C-10.10572526 16.95972741 -9.73516057 14.84091593 -9.3125 12.3125 C-8.34281567 6.58175295 -6.3390518 0.71762851 0 0 Z " fill="#23492C" transform="translate(3376.3125,1103.625)"/>
<path d="M0 0 C52.14 0 104.28 0 158 0 C158 0.33 158 0.66 158 1 C138.13771392 2.04465701 118.27535006 3.08782284 98.41289234 4.12921143 C89.19050739 4.61277593 79.96814857 5.09682916 70.74584961 5.58203125 C62.70811237 6.00491013 54.67032769 6.42687374 46.63248461 6.84773636 C42.37616292 7.07063008 38.11986646 7.2939834 33.86362648 7.51843262 C29.85746263 7.72967979 25.85123649 7.93970302 21.84495926 8.14878845 C20.37477059 8.22573298 18.90460522 8.30312433 17.43446541 8.3809967 C15.42628857 8.48730139 13.41801842 8.59183893 11.40974426 8.69628906 C10.28607862 8.75528381 9.16241297 8.81427856 8.00469685 8.87506104 C5.33154334 8.98621402 2.67494385 9.02418587 0 9 C0 6.03 0 3.06 0 0 Z " fill="#F2F7E8" transform="translate(5853,1341)"/>
</svg>
